<?xml version="1.0" encoding="utf-8"?>
<!-- Generator: Adobe Illustrator 15.0.2, SVG Export Plug-In . SVG Version: 6.00 Build 0)  -->
<!DOCTYPE svg PUBLIC "-//W3C//DTD SVG 1.1//EN" "http://www.w3.org/Graphics/SVG/1.1/DTD/svg11.dtd">
<svg version="1.1" id="svg2" xmlns:svg="http://www.w3.org/2000/svg"
	 xmlns="http://www.w3.org/2000/svg" xmlns:xlink="http://www.w3.org/1999/xlink" x="0px" y="0px" width="672px" height="504px"
	 viewBox="0 0 672 504" enable-background="new 0 0 672 504" xml:space="preserve">
<rect id="rect2762" fill="#131313" width="468.5" height="322.5"/>
<rect id="rect2768" fill="#C0C0C0" width="66.929" height="215"/>
<rect id="rect2770" x="66.929" fill="#C0C000" width="66.928" height="215"/>
<rect id="rect2772" x="133.857" fill="#00C0C0" width="66.929" height="215"/>
<rect id="rect2774" x="200.786" fill="#00C000" width="66.929" height="215"/>
<rect id="rect2776" x="267.714" fill="#C000C0" width="66.929" height="215"/>
<rect id="rect2778" x="334.643" fill="#C00000" width="66.928" height="215"/>
<rect id="rect2780" x="401.571" fill="#0000C0" width="66.929" height="215"/>
<rect id="rect2782" y="215" fill="#0000C0" width="66.929" height="26.875"/>
<rect id="rect2784" x="133.857" y="215" fill="#C000C0" width="66.929" height="26.875"/>
<rect id="rect2786" x="267.714" y="215" fill="#00C0C0" width="66.929" height="26.875"/>
<rect id="rect2788" x="401.571" y="215" fill="#C0C0C0" width="66.929" height="26.875"/>
<rect id="rect2790" y="241.875" fill="#00214C" width="83.661" height="80.625"/>
<rect id="rect2796" x="83.661" y="241.875" fill="#FFFFFF" width="83.661" height="80.625"/>
<rect id="rect2798" x="167.321" y="241.875" fill="#32006A" width="83.661" height="80.625"/>
<rect id="rect2800" x="334.643" y="241.875" fill="#090909" width="22.309" height="80.625"/>
<rect id="rect2802" x="379.262" y="241.875" fill="#1D1D1D" width="22.31" height="80.625"/>
</svg>
